<?xml version="1.0" encoding="UTF-8" standalone="no"?><svg xmlns="http://www.w3.org/2000/svg" xmlns:xlink="http://www.w3.org/1999/xlink" contentStyleType="text/css" height="592px" preserveAspectRatio="none" style="width:740px;height:592px;background:#FFFFFF;" version="1.1" viewBox="0 0 740 592" width="740px" zoomAndPan="magnify"><defs/><g><!--MD5=[d0f93b805167db4c7f9c9d1ac953940b]
cluster Generic _93k_driver--><g id="cluster_Generic _93k_driver"><path d="M16.75,6 L174.75,6 A3.75,3.75 0 0 1 177.25,8.5 L184.25,28.2969 L730.75,28.2969 A2.5,2.5 0 0 1 733.25,30.7969 L733.25,473.5 A2.5,2.5 0 0 1 730.75,476 L16.75,476 A2.5,2.5 0 0 1 14.25,473.5 L14.25,8.5 A2.5,2.5 0 0 1 16.75,6 " fill="none" style="stroke:#000000;stroke-width:1.5;"/><line style="stroke:#000000;stroke-width:1.5;" x1="14.25" x2="184.25" y1="28.2969" y2="28.2969"/><text fill="#000000" font-family="sans-serif" font-size="14" font-weight="bold" lengthAdjust="spacing" textLength="157" x="18.25" y="20.9951">Generic _93k_driver</text></g><!--MD5=[ffec6a9efb9cc25dae0a2c0a0b7068f5]
entity Frame--><g id="elem_Frame"><rect fill="#F1F1F1" height="46.2969" rx="2.5" ry="2.5" style="stroke:#181818;stroke-width:0.5;" width="83" x="329" y="42"/><rect fill="#F1F1F1" height="10" style="stroke:#181818;stroke-width:0.5;" width="15" x="392" y="47"/><rect fill="#F1F1F1" height="2" style="stroke:#181818;stroke-width:0.5;" width="4" x="390" y="49"/><rect fill="#F1F1F1" height="2" style="stroke:#181818;stroke-width:0.5;" width="4" x="390" y="53"/><text fill="#000000" font-family="sans-serif" font-size="14" lengthAdjust="spacing" textLength="43" x="344" y="74.9951">Frame</text></g><!--MD5=[1f71be5f919a0fea49cbbd4357e0d3f3]
entity MHCOM--><g id="elem_MHCOM"><rect fill="#F1F1F1" height="46.2969" rx="2.5" ry="2.5" style="stroke:#181818;stroke-width:0.5;" width="95" x="31" y="290"/><rect fill="#F1F1F1" height="10" style="stroke:#181818;stroke-width:0.5;" width="15" x="106" y="295"/><rect fill="#F1F1F1" height="2" style="stroke:#181818;stroke-width:0.5;" width="4" x="104" y="297"/><rect fill="#F1F1F1" height="2" style="stroke:#181818;stroke-width:0.5;" width="4" x="104" y="301"/><text fill="#000000" font-family="sans-serif" font-size="14" lengthAdjust="spacing" textLength="55" x="46" y="322.9951">MHCOM</text></g><!--MD5=[efb043050540223fa2804c4291fa5dfa]
entity TCOM--><g id="elem_TCOM"><rect fill="#F1F1F1" height="46.2969" rx="2.5" ry="2.5" style="stroke:#181818;stroke-width:0.5;" width="82" x="163.25" y="290"/><rect fill="#F1F1F1" height="10" style="stroke:#181818;stroke-width:0.5;" width="15" x="225.25" y="295"/><rect fill="#F1F1F1" height="2" style="stroke:#181818;stroke-width:0.5;" width="4" x="223.25" y="297"/><rect fill="#F1F1F1" height="2" style="stroke:#181818;stroke-width:0.5;" width="4" x="223.25" y="301"/><text fill="#000000" font-family="sans-serif" font-size="14" lengthAdjust="spacing" textLength="42" x="178.25" y="322.9951">TCOM</text></g><!--MD5=[aade9d82a3c132f2d76205caf2a042b1]
entity GIO--><g id="elem_GIO"><rect fill="#F1F1F1" height="46.2969" rx="2.5" ry="2.5" style="stroke:#181818;stroke-width:0.5;" width="65" x="35" y="414"/><rect fill="#F1F1F1" height="10" style="stroke:#181818;stroke-width:0.5;" width="15" x="80" y="419"/><rect fill="#F1F1F1" height="2" style="stroke:#181818;stroke-width:0.5;" width="4" x="78" y="421"/><rect fill="#F1F1F1" height="2" style="stroke:#181818;stroke-width:0.5;" width="4" x="78" y="425"/><text fill="#000000" font-family="sans-serif" font-size="14" lengthAdjust="spacing" textLength="25" x="50" y="446.9951">GIO</text></g><!--MD5=[34d05dd9153c0c00479378b33757e05d]
entity HVM--><g id="elem_HVM"><rect fill="#F1F1F1" height="46.2969" rx="2.5" ry="2.5" style="stroke:#181818;stroke-width:0.5;" width="71" x="172" y="414"/><rect fill="#F1F1F1" height="10" style="stroke:#181818;stroke-width:0.5;" width="15" x="223" y="419"/><rect fill="#F1F1F1" height="2" style="stroke:#181818;stroke-width:0.5;" width="4" x="221" y="421"/><rect fill="#F1F1F1" height="2" style="stroke:#181818;stroke-width:0.5;" width="4" x="221" y="425"/><text fill="#000000" font-family="sans-serif" font-size="14" lengthAdjust="spacing" textLength="31" x="187" y="446.9951">HVM</text></g><!--MD5=[45a20a671fddef42c2c41794305c2e2c]
entity LOG--><g id="elem_LOG"><rect fill="#F1F1F1" height="46.2969" rx="2.5" ry="2.5" style="stroke:#181818;stroke-width:0.5;" width="69" x="648" y="166"/><rect fill="#F1F1F1" height="10" style="stroke:#181818;stroke-width:0.5;" width="15" x="697" y="171"/><rect fill="#F1F1F1" height="2" style="stroke:#181818;stroke-width:0.5;" width="4" x="695" y="173"/><rect fill="#F1F1F1" height="2" style="stroke:#181818;stroke-width:0.5;" width="4" x="695" y="177"/><text fill="#000000" font-family="sans-serif" font-size="14" lengthAdjust="spacing" textLength="29" x="663" y="198.9951">LOG</text></g><!--MD5=[f728c4bafa0ed2c34c25d6b330f5d83d]
entity CONFIG--><g id="elem_CONFIG"><rect fill="#F1F1F1" height="46.2969" rx="2.5" ry="2.5" style="stroke:#181818;stroke-width:0.5;" width="93" x="148" y="166"/><rect fill="#F1F1F1" height="10" style="stroke:#181818;stroke-width:0.5;" width="15" x="221" y="171"/><rect fill="#F1F1F1" height="2" style="stroke:#181818;stroke-width:0.5;" width="4" x="219" y="173"/><rect fill="#F1F1F1" height="2" style="stroke:#181818;stroke-width:0.5;" width="4" x="219" y="177"/><text fill="#000000" font-family="sans-serif" font-size="14" lengthAdjust="spacing" textLength="53" x="163" y="198.9951">CONFIG</text></g><!--MD5=[7c2a6aacd5921a0beb9c1ef70b02eaa8]
entity EVENT--><g id="elem_EVENT"><rect fill="#F1F1F1" height="46.2969" rx="2.5" ry="2.5" style="stroke:#181818;stroke-width:0.5;" width="86" x="276.25" y="166"/><rect fill="#F1F1F1" height="10" style="stroke:#181818;stroke-width:0.5;" width="15" x="342.25" y="171"/><rect fill="#F1F1F1" height="2" style="stroke:#181818;stroke-width:0.5;" width="4" x="340.25" y="173"/><rect fill="#F1F1F1" height="2" style="stroke:#181818;stroke-width:0.5;" width="4" x="340.25" y="177"/><text fill="#000000" font-family="sans-serif" font-size="14" lengthAdjust="spacing" textLength="46" x="291.25" y="198.9951">EVENT</text></g><!--MD5=[92047812e59f41ab832ff330b88f021d]
entity STATE--><g id="elem_STATE"><rect fill="#F1F1F1" height="46.2969" rx="2.5" ry="2.5" style="stroke:#181818;stroke-width:0.5;" width="85" x="398" y="166"/><rect fill="#F1F1F1" height="10" style="stroke:#181818;stroke-width:0.5;" width="15" x="463" y="171"/><rect fill="#F1F1F1" height="2" style="stroke:#181818;stroke-width:0.5;" width="4" x="461" y="173"/><rect fill="#F1F1F1" height="2" style="stroke:#181818;stroke-width:0.5;" width="4" x="461" y="177"/><text fill="#000000" font-family="sans-serif" font-size="14" lengthAdjust="spacing" textLength="45" x="413" y="198.9951">STATE</text></g><!--MD5=[65ed85e2790f8ba01240fefcc1f15664]
entity ESTATE--><g id="elem_ESTATE"><rect fill="#F1F1F1" height="46.2969" rx="2.5" ry="2.5" style="stroke:#181818;stroke-width:0.5;" width="94" x="518.25" y="166"/><rect fill="#F1F1F1" height="10" style="stroke:#181818;stroke-width:0.5;" width="15" x="592.25" y="171"/><rect fill="#F1F1F1" height="2" style="stroke:#181818;stroke-width:0.5;" width="4" x="590.25" y="173"/><rect fill="#F1F1F1" height="2" style="stroke:#181818;stroke-width:0.5;" width="4" x="590.25" y="177"/><text fill="#000000" font-family="sans-serif" font-size="14" lengthAdjust="spacing" textLength="54" x="533.25" y="198.9951">ESTATE</text></g><!--MD5=[336b9fd48f5e9f3ed29f596a82d3af84]
entity Plugin--><g id="elem_Plugin"><rect fill="#F1F1F1" height="46.2969" rx="2.5" ry="2.5" style="stroke:#181818;stroke-width:0.5;" width="82" x="30.25" y="166"/><rect fill="#F1F1F1" height="10" style="stroke:#181818;stroke-width:0.5;" width="15" x="92.25" y="171"/><rect fill="#F1F1F1" height="2" style="stroke:#181818;stroke-width:0.5;" width="4" x="90.25" y="173"/><rect fill="#F1F1F1" height="2" style="stroke:#181818;stroke-width:0.5;" width="4" x="90.25" y="177"/><text fill="#000000" font-family="sans-serif" font-size="14" lengthAdjust="spacing" textLength="42" x="45.25" y="198.9951">Plugin</text></g><!--MD5=[6bd0a572f303cde83d023f183b9a6c17]
entity Smartest--><g id="elem_Smartest"><rect fill="#F1F1F1" height="46.2969" rx="2.5" ry="2.5" style="stroke:#181818;stroke-width:0.5;" width="102" x="157.25" y="540"/><rect fill="#F1F1F1" height="10" style="stroke:#181818;stroke-width:0.5;" width="15" x="239.25" y="545"/><rect fill="#F1F1F1" height="2" style="stroke:#181818;stroke-width:0.5;" width="4" x="237.25" y="547"/><rect fill="#F1F1F1" height="2" style="stroke:#181818;stroke-width:0.5;" width="4" x="237.25" y="551"/><text fill="#000000" font-family="sans-serif" font-size="14" lengthAdjust="spacing" textLength="62" x="172.25" y="572.9951">Smartest</text></g><!--MD5=[e40c5c052a734c59fdaa6a428449336f]
entity Equipment--><g id="elem_Equipment"><rect fill="#F1F1F1" height="46.2969" rx="2.5" ry="2.5" style="stroke:#181818;stroke-width:0.5;" width="115" x="7" y="540"/><rect fill="#F1F1F1" height="10" style="stroke:#181818;stroke-width:0.5;" width="15" x="102" y="545"/><rect fill="#F1F1F1" height="2" style="stroke:#181818;stroke-width:0.5;" width="4" x="100" y="547"/><rect fill="#F1F1F1" height="2" style="stroke:#181818;stroke-width:0.5;" width="4" x="100" y="551"/><text fill="#000000" font-family="sans-serif" font-size="14" lengthAdjust="spacing" textLength="75" x="22" y="572.9951">Equipment</text></g><!--MD5=[6b930bfb8d35c69e8b81b9fb4d9e2832]
link Frame to Plugin--><g id="link_Frame_Plugin"><path d="M328.857,77.563 C296.181,87.141 249.685,101.773 210.25,118 C177.772,131.364 142.441,149.203 115.527,163.528 " fill="none" id="Frame-to-Plugin" style="stroke:#181818;stroke-width:1.0;"/><polygon fill="#181818" points="110.942,165.977,120.7651,165.2647,115.3522,163.6212,116.9957,158.2083,110.942,165.977" style="stroke:#181818;stroke-width:1.0;"/><text fill="#000000" font-family="sans-serif" font-size="13" lengthAdjust="spacing" textLength="41" x="211.25" y="131.0669">invoke</text></g><!--MD5=[e0fbae69c4d823b371fed3520c624932]
link Plugin to MHCOM--><g id="link_Plugin_MHCOM"><path d="M72.5176,212.093 C73.6848,232.436 75.4205,262.685 76.676,284.567 " fill="none" id="Plugin-to-MHCOM" style="stroke:#181818;stroke-width:1.0;"/><polygon fill="#181818" points="76.9681,289.659,80.4473,280.4451,76.6824,284.6672,72.4603,280.9023,76.9681,289.659" style="stroke:#181818;stroke-width:1.0;"/><text fill="#000000" font-family="sans-serif" font-size="13" lengthAdjust="spacing" textLength="41" x="76.25" y="255.0669">invoke</text></g><!--MD5=[8b0daa269f60f128da2163b2a6ae2abc]
link Plugin to TCOM--><g id="link_Plugin_TCOM"><path d="M95.3353,212.093 C118.073,232.951 152.166,264.223 176.137,286.212 " fill="none" id="Plugin-to-TCOM" style="stroke:#181818;stroke-width:1.0;"/><polygon fill="#181818" points="179.894,289.659,175.9644,280.628,176.2089,286.2796,170.5574,286.5241,179.894,289.659" style="stroke:#181818;stroke-width:1.0;"/><text fill="#000000" font-family="sans-serif" font-size="13" lengthAdjust="spacing" textLength="41" x="147.25" y="255.0669">invoke</text></g><!--MD5=[a6bef82e72124a1704417526edb30be3]
link Frame to CONFIG--><g id="link_Frame_CONFIG"><path d="M332.04,88.19 C317.206,97.111 300.217,107.708 285.25,118 C264.961,131.951 243.064,148.737 225.834,162.374 " fill="none" id="Frame-to-CONFIG" style="stroke:#181818;stroke-width:1.0;"/><polygon fill="#181818" points="221.558,165.77,231.0939,163.3069,225.474,162.6612,226.1198,157.0413,221.558,165.77" style="stroke:#181818;stroke-width:1.0;"/><text fill="#000000" font-family="sans-serif" font-size="13" lengthAdjust="spacing" textLength="41" x="286.25" y="131.0669">invoke</text></g><!--MD5=[142269045bea426b40a3f439f46dc78c]
link Frame to EVENT--><g id="link_Frame_EVENT"><path d="M357.812,88.173 C352.954,97.269 347.535,107.995 343.25,118 C337.312,131.866 331.772,147.738 327.515,160.859 " fill="none" id="Frame-to-EVENT" style="stroke:#181818;stroke-width:1.0;"/><polygon fill="#181818" points="325.889,165.928,332.4472,158.5802,327.4165,161.167,324.8296,156.1363,325.889,165.928" style="stroke:#181818;stroke-width:1.0;"/><text fill="#000000" font-family="sans-serif" font-size="13" lengthAdjust="spacing" textLength="41" x="344.25" y="131.0669">invoke</text></g><!--MD5=[33245f5e9b602bf17109a57998444b7e]
link Frame to STATE--><g id="link_Frame_STATE"><path d="M382.926,88.093 C394.697,108.607 412.248,139.197 424.827,161.119 " fill="none" id="Frame-to-STATE" style="stroke:#181818;stroke-width:1.0;"/><polygon fill="#181818" points="427.431,165.659,426.4214,155.862,424.9426,161.3222,419.4825,159.8434,427.431,165.659" style="stroke:#181818;stroke-width:1.0;"/><text fill="#000000" font-family="sans-serif" font-size="13" lengthAdjust="spacing" textLength="41" x="411.25" y="131.0669">invoke</text></g><!--MD5=[683ad0bccabd4fd0a2f6f6e1e6569b51]
link Frame to ESTATE--><g id="link_Frame_ESTATE"><path d="M410.976,88.071 C427.115,97.062 445.728,107.741 462.25,118 C485.132,132.209 510.135,149.165 529.777,162.831 " fill="none" id="Frame-to-ESTATE" style="stroke:#181818;stroke-width:1.0;"/><polygon fill="#181818" points="534.138,165.872,529.0449,157.4422,530.0371,163.0114,524.468,164.0036,534.138,165.872" style="stroke:#181818;stroke-width:1.0;"/><text fill="#000000" font-family="sans-serif" font-size="13" lengthAdjust="spacing" textLength="41" x="488.25" y="131.0669">invoke</text></g><!--MD5=[e7b7f19cfc491b26395cca628903f986]
link MHCOM to GIO--><g id="link_MHCOM_GIO"><path d="M76.258,336.093 C74.4238,356.436 71.6964,386.685 69.7235,408.567 " fill="none" id="MHCOM-to-GIO" style="stroke:#181818;stroke-width:1.0;"/><polygon fill="#181818" points="69.2644,413.659,74.0557,405.0541,69.713,408.6792,66.088,404.3364,69.2644,413.659" style="stroke:#181818;stroke-width:1.0;"/><text fill="#000000" font-family="sans-serif" font-size="13" lengthAdjust="spacing" textLength="41" x="75.25" y="379.0669">invoke</text></g><!--MD5=[3cc570c933a171e9e8f8043d476b2e5a]
link TCOM to HVM--><g id="link_TCOM_HVM"><path d="M204.793,336.093 C205.293,356.436 206.037,386.685 206.575,408.567 " fill="none" id="TCOM-to-HVM" style="stroke:#181818;stroke-width:1.0;"/><polygon fill="#181818" points="206.701,413.659,210.4787,404.5634,206.5781,408.6605,202.4811,404.76,206.701,413.659" style="stroke:#181818;stroke-width:1.0;"/><text fill="#000000" font-family="sans-serif" font-size="13" lengthAdjust="spacing" textLength="41" x="207.25" y="379.0669">invoke</text></g><!--MD5=[6142d19de5f20b1886d2bef2d5fe2944]
link Frame to LOG--><g id="link_Frame_LOG"><path d="M411.504,76.742 C446.11,86.214 496.577,101.111 539.25,118 C575.479,132.338 615.166,152.11 643.519,166.984 " fill="none" id="Frame-to-LOG" style="stroke:#181818;stroke-width:1.0;"/><polygon fill="#181818" points="647.97,169.327,641.8687,161.5956,643.5454,166.9983,638.1428,168.675,647.97,169.327" style="stroke:#181818;stroke-width:1.0;"/><text fill="#000000" font-family="sans-serif" font-size="13" lengthAdjust="spacing" textLength="41" x="580.25" y="131.0669">invoke</text></g><!--MD5=[64b5ac21eec91bbea4fcaeccae64e89d]
link GIO to Equipment--><g id="link_GIO_Equipment"><path d="M66.7137,460.169 C66.2113,480.935 65.4587,512.0397 64.9176,534.4046 " fill="none" id="GIO-to-Equipment" style="stroke:#181818;stroke-width:1.0;"/><polygon fill="#181818" points="64.7918,539.6051,69.0087,530.7047,64.9129,534.6066,61.011,530.5108,64.7918,539.6051" style="stroke:#181818;stroke-width:1.0;"/><text fill="#000000" font-family="sans-serif" font-size="13" lengthAdjust="spacing" textLength="44" x="67.25" y="505.0669">access</text></g><!--MD5=[9e26d38c281726ff0496222c07062733]
link HVM to Smartest--><g id="link_HVM_Smartest"><path d="M207.429,460.169 C207.596,480.935 207.847,512.0397 208.027,534.4046 " fill="none" id="HVM-to-Smartest" style="stroke:#181818;stroke-width:1.0;"/><polygon fill="#181818" points="208.069,539.6051,211.9961,530.5731,208.0286,534.6053,203.9964,530.6377,208.069,539.6051" style="stroke:#181818;stroke-width:1.0;"/><text fill="#000000" font-family="sans-serif" font-size="13" lengthAdjust="spacing" textLength="44" x="209.25" y="505.0669">access</text></g><!--MD5=[1b2af9e44fda1ce284ac8eb81d1c139c]
@startuml overview_static_diagram
package "Generic _93k_driver" {
    [Frame]
    [MHCOM]
    [TCOM]
    [GIO]
    [HVM]
    [LOG]
    [CONFIG]
    [EVENT]
    [STATE]
    [ESTATE]
    [Plugin]

    Frame - -> Plugin : invoke
    Plugin - -> MHCOM : invoke
    Plugin - -> TCOM : invoke
    Frame - -> CONFIG : invoke
    Frame - -> EVENT : invoke
    Frame - -> STATE : invoke
    Frame - -> ESTATE : invoke
    MHCOM - -> GIO : invoke
    TCOM - -> HVM : invoke
    Frame - -> LOG : invoke
}

[Smartest]
[Equipment]
GIO - -> Equipment: access
HVM - -> Smartest: access
@enduml

PlantUML version 1.2022.7(Tue Aug 23 01:01:30 CST 2022)
(GPL source distribution)
Java Runtime: OpenJDK Runtime Environment
JVM: OpenJDK 64-Bit Server VM
Default Encoding: ANSI_X3.4-1968
Language: en
Country: US
--></g></svg>