<?xml version="1.0" encoding="UTF-8" standalone="no"?><svg xmlns="http://www.w3.org/2000/svg" xmlns:xlink="http://www.w3.org/1999/xlink" contentStyleType="text/css" height="412px" preserveAspectRatio="none" style="width:912px;height:412px;background:#FFFFFF;" version="1.1" viewBox="0 0 912 412" width="912px" zoomAndPan="magnify"><defs/><g><rect fill="#FFFFFF" height="300.3281" style="stroke:#181818;stroke-width:1.0;" width="10" x="78" y="67.4297"/><rect fill="#FFBBBB" height="321.4609" style="stroke:#181818;stroke-width:1.0;" width="10" x="240" y="46.2969"/><rect fill="#FFBBBB" height="174.7969" style="stroke:#181818;stroke-width:1.0;" width="10" x="413" y="183.9609"/><rect fill="#FFBBBB" height="321.4609" style="stroke:#181818;stroke-width:1.0;" width="10" x="728" y="46.2969"/><line style="stroke:#181818;stroke-width:0.5;stroke-dasharray:5.0,5.0;" x1="82.5" x2="82.5" y1="36.2969" y2="376.7578"/><line style="stroke:#181818;stroke-width:0.5;stroke-dasharray:5.0,5.0;" x1="244.5" x2="244.5" y1="36.2969" y2="376.7578"/><line style="stroke:#181818;stroke-width:0.5;stroke-dasharray:5.0,5.0;" x1="418" x2="418" y1="36.2969" y2="376.7578"/><line style="stroke:#181818;stroke-width:0.5;stroke-dasharray:5.0,5.0;" x1="732.5" x2="732.5" y1="36.2969" y2="376.7578"/><line style="stroke:#181818;stroke-width:0.5;stroke-dasharray:5.0,5.0;" x1="861.5" x2="861.5" y1="36.2969" y2="376.7578"/><rect fill="#E2E2F0" height="30.2969" rx="2.5" ry="2.5" style="stroke:#181818;stroke-width:0.5;" width="51" x="57.5" y="5"/><text fill="#000000" font-family="sans-serif" font-size="14" lengthAdjust="spacing" textLength="37" x="64.5" y="24.9951">client</text><rect fill="#E2E2F0" height="30.2969" rx="2.5" ry="2.5" style="stroke:#181818;stroke-width:0.5;" width="51" x="57.5" y="375.7578"/><text fill="#000000" font-family="sans-serif" font-size="14" lengthAdjust="spacing" textLength="37" x="64.5" y="395.7529">client</text><rect fill="#ADD8E6" height="30.2969" rx="2.5" ry="2.5" style="stroke:#181818;stroke-width:0.5;" width="103" x="193.5" y="5"/><text fill="#000000" font-family="sans-serif" font-size="14" lengthAdjust="spacing" textLength="89" x="200.5" y="24.9951">ProberFrame</text><rect fill="#ADD8E6" height="30.2969" rx="2.5" ry="2.5" style="stroke:#181818;stroke-width:0.5;" width="103" x="193.5" y="375.7578"/><text fill="#000000" font-family="sans-serif" font-size="14" lengthAdjust="spacing" textLength="89" x="200.5" y="395.7529">ProberFrame</text><rect fill="#E2E2F0" height="30.2969" rx="2.5" ry="2.5" style="stroke:#181818;stroke-width:0.5;" width="102" x="367" y="5"/><text fill="#000000" font-family="sans-serif" font-size="14" lengthAdjust="spacing" textLength="88" x="374" y="24.9951">ProberPlugIn</text><rect fill="#E2E2F0" height="30.2969" rx="2.5" ry="2.5" style="stroke:#181818;stroke-width:0.5;" width="102" x="367" y="375.7578"/><text fill="#000000" font-family="sans-serif" font-size="14" lengthAdjust="spacing" textLength="88" x="374" y="395.7529">ProberPlugIn</text><rect fill="#ADD8E6" height="30.2969" rx="2.5" ry="2.5" style="stroke:#181818;stroke-width:0.5;" width="77" x="694.5" y="5"/><text fill="#000000" font-family="sans-serif" font-size="14" lengthAdjust="spacing" textLength="63" x="701.5" y="24.9951">Common</text><rect fill="#ADD8E6" height="30.2969" rx="2.5" ry="2.5" style="stroke:#181818;stroke-width:0.5;" width="77" x="694.5" y="375.7578"/><text fill="#000000" font-family="sans-serif" font-size="14" lengthAdjust="spacing" textLength="63" x="701.5" y="395.7529">Common</text><rect fill="#E2E2F0" height="30.2969" rx="2.5" ry="2.5" style="stroke:#181818;stroke-width:0.5;" width="89" x="817.5" y="5"/><text fill="#000000" font-family="sans-serif" font-size="14" lengthAdjust="spacing" textLength="75" x="824.5" y="24.9951">Equipment</text><rect fill="#E2E2F0" height="30.2969" rx="2.5" ry="2.5" style="stroke:#181818;stroke-width:0.5;" width="89" x="817.5" y="375.7578"/><text fill="#000000" font-family="sans-serif" font-size="14" lengthAdjust="spacing" textLength="75" x="824.5" y="395.7529">Equipment</text><rect fill="#FFFFFF" height="300.3281" style="stroke:#181818;stroke-width:1.0;" width="10" x="78" y="67.4297"/><rect fill="#FFBBBB" height="321.4609" style="stroke:#181818;stroke-width:1.0;" width="10" x="240" y="46.2969"/><rect fill="#FFBBBB" height="174.7969" style="stroke:#181818;stroke-width:1.0;" width="10" x="413" y="183.9609"/><rect fill="#FFBBBB" height="321.4609" style="stroke:#181818;stroke-width:1.0;" width="10" x="728" y="46.2969"/><polygon fill="#181818" points="66,63.4297,76,67.4297,66,71.4297,70,67.4297" style="stroke:#181818;stroke-width:1.0;"/><line style="stroke:#181818;stroke-width:1.0;" x1="0" x2="72" y1="67.4297" y2="67.4297"/><text fill="#000000" font-family="sans-serif" font-size="13" lengthAdjust="spacing" textLength="59" x="7" y="62.3638">start test</text><polygon fill="#181818" points="228,92.5625,238,96.5625,228,100.5625,232,96.5625" style="stroke:#181818;stroke-width:1.0;"/><line style="stroke:#181818;stroke-width:1.0;" x1="88" x2="234" y1="96.5625" y2="96.5625"/><text fill="#000000" font-family="sans-serif" font-size="13" lengthAdjust="spacing" textLength="112" x="95" y="91.4966">load PlugIn library</text><polygon fill="#181818" points="716,121.6953,726,125.6953,716,129.6953,720,125.6953" style="stroke:#181818;stroke-width:1.0;"/><line style="stroke:#181818;stroke-width:1.0;" x1="250" x2="722" y1="125.6953" y2="125.6953"/><text fill="#000000" font-family="sans-serif" font-size="13" lengthAdjust="spacing" textLength="133" x="257" y="120.6294">read/parse config file</text><polygon fill="#181818" points="261,150.8281,251,154.8281,261,158.8281,257,154.8281" style="stroke:#181818;stroke-width:1.0;"/><line style="stroke:#181818;stroke-width:1.0;stroke-dasharray:2.0,2.0;" x1="255" x2="727" y1="154.8281" y2="154.8281"/><text fill="#000000" font-family="sans-serif" font-size="13" lengthAdjust="spacing" textLength="146" x="267" y="149.7622">return ProberPlugInInfo</text><polygon fill="#181818" points="401,179.9609,411,183.9609,401,187.9609,405,183.9609" style="stroke:#181818;stroke-width:1.0;"/><line style="stroke:#181818;stroke-width:1.0;" x1="250" x2="407" y1="183.9609" y2="183.9609"/><text fill="#000000" font-family="sans-serif" font-size="13" lengthAdjust="spacing" textLength="103" x="257" y="178.895">Init ProberPlugIn</text><polygon fill="#181818" points="228,209.0938,238,213.0938,228,217.0938,232,213.0938" style="stroke:#181818;stroke-width:1.0;"/><line style="stroke:#181818;stroke-width:1.0;" x1="88" x2="234" y1="213.0938" y2="213.0938"/><text fill="#000000" font-family="sans-serif" font-size="13" lengthAdjust="spacing" textLength="76" x="95" y="208.0278">call function</text><polygon fill="#181818" points="401,238.2266,411,242.2266,401,246.2266,405,242.2266" style="stroke:#181818;stroke-width:1.0;"/><line style="stroke:#181818;stroke-width:1.0;" x1="250" x2="407" y1="242.2266" y2="242.2266"/><text fill="#000000" font-family="sans-serif" font-size="13" lengthAdjust="spacing" textLength="127" x="257" y="237.1606">forward function call</text><polygon fill="#181818" points="716,267.3594,726,271.3594,716,275.3594,720,271.3594" style="stroke:#181818;stroke-width:1.0;"/><line style="stroke:#181818;stroke-width:1.0;" x1="423" x2="722" y1="271.3594" y2="271.3594"/><text fill="#000000" font-family="sans-serif" font-size="13" lengthAdjust="spacing" textLength="281" x="430" y="266.2935">convert function call to equipment language</text><polygon fill="#181818" points="850,296.4922,860,300.4922,850,304.4922,854,300.4922" style="stroke:#181818;stroke-width:1.0;"/><line style="stroke:#181818;stroke-width:1.0;" x1="738" x2="856" y1="300.4922" y2="300.4922"/><text fill="#000000" font-family="sans-serif" font-size="13" lengthAdjust="spacing" textLength="100" x="745" y="295.4263">send command</text><polygon fill="#181818" points="228,325.625,238,329.625,228,333.625,232,329.625" style="stroke:#181818;stroke-width:1.0;"/><line style="stroke:#181818;stroke-width:1.0;" x1="88" x2="234" y1="329.625" y2="329.625"/><text fill="#000000" font-family="sans-serif" font-size="13" lengthAdjust="spacing" textLength="128" x="95" y="324.5591">unload PlugIn library</text><polygon fill="#181818" points="406,354.7578,416,358.7578,406,362.7578,410,358.7578" style="stroke:#181818;stroke-width:1.0;"/><line style="stroke:#181818;stroke-width:1.0;" x1="250" x2="412" y1="358.7578" y2="358.7578"/><text fill="#000000" font-family="sans-serif" font-size="13" lengthAdjust="spacing" textLength="139" x="257" y="353.6919">ProberFrame: destroy</text><!--MD5=[405226b2027102d00b7acf3e9d5d0d02]
@startuml overview_dynamic_diagram
participant client
participant ProberFrame #LIGHTBLUE
activate  ProberFrame #FFBBBB
participant ProberPlugIn 
participant Common #LIGHTBLUE
activate Common #FFBBBB
participant Equipment
[-> client++ : start test
client->ProberFrame : load PlugIn library
ProberFrame->Common : read/parse config file
Common - ->ProberFrame :return ProberPlugInInfo
ProberFrame -> ProberPlugIn : Init ProberPlugIn
activate ProberPlugIn #FFBBBB
client->ProberFrame : call function
ProberFrame ->ProberPlugIn :forward function call 
ProberPlugIn -> Common :convert function call to equipment language
Common -> Equipment :send command
client->ProberFrame : unload PlugIn library
ProberFrame -> ProberPlugIn :ProberFrame: destroy 
deactivate ProberPlugIn
@enduml

PlantUML version 1.2022.7(Tue Aug 23 01:01:30 CST 2022)
(GPL source distribution)
Java Runtime: OpenJDK Runtime Environment
JVM: OpenJDK 64-Bit Server VM
Default Encoding: ANSI_X3.4-1968
Language: en
Country: US
--></g></svg>